<?xml version="1.0" encoding="utf-8"?>
<!-- Generator: Adobe Illustrator 15.0.0, SVG Export Plug-In . SVG Version: 6.00 Build 0)  -->
<!DOCTYPE svg PUBLIC "-//W3C//DTD SVG 1.1//EN" "http://www.w3.org/Graphics/SVG/1.1/DTD/svg11.dtd">
<svg version="1.1" id="Layer_1" xmlns="http://www.w3.org/2000/svg" xmlns:xlink="http://www.w3.org/1999/xlink" x="0px" y="0px"
	 width="80px" height="80px" viewBox="0 0 80 80" enable-background="new 0 0 80 80" xml:space="preserve">
<polygon fill="#003399" points="38.717,56.998 41.33,56.998 41.33,52.576 43.219,51.631 42.051,49.289 40.023,50.306 37.995,49.289 
	36.828,51.631 38.717,52.576 "/>
<path fill="#003399" d="M21.718,72.685c0,4.493,9.492,6.537,18.305,6.537c8.815,0,18.306-2.044,18.306-6.537
	c0-3.781-6.61-5.354-10.463-5.954v-6.303l1.889-0.949c0.446-0.228,0.732-0.68,0.732-1.175V50.46c0-2.639-1.964-4.821-4.51-5.18
	c0.379-0.832,0.582-1.735,0.582-2.664c0-3.604-2.932-6.536-6.537-6.536c-3.604,0-6.538,2.932-6.538,6.536
	c0,0.929,0.205,1.832,0.584,2.664c-2.546,0.358-4.508,2.541-4.508,5.18v7.844c0,0.495,0.284,0.947,0.729,1.175l1.89,0.94v6.312
	C28.328,67.33,21.718,68.903,21.718,72.685z M32.181,50.46c0-1.44,1.175-2.615,2.612-2.615h1.802c0.547,0,1.036-0.34,1.224-0.848
	c0.191-0.507,0.045-1.083-0.364-1.444c-0.875-0.765-1.356-1.809-1.356-2.937c0-2.163,1.765-3.924,3.924-3.924
	c2.16,0,3.926,1.761,3.926,3.924c0,1.128-0.482,2.172-1.357,2.937c-0.409,0.358-0.556,0.936-0.365,1.444
	c0.189,0.508,0.68,0.848,1.226,0.848h1.801c1.439,0,2.613,1.175,2.613,2.615v7.033l-1.889,0.95
	c-0.446,0.218-0.725,0.668-0.725,1.165v11.769h-10.46V59.608c0-0.497-0.277-0.947-0.723-1.165l-1.889-0.95V50.46z M33.485,73.998
	H46.56c0.724,0,1.307-0.585,1.307-1.313v-3.307c5.517,0.913,7.843,2.563,7.843,3.307c0,1.386-5.954,3.925-15.686,3.925
	s-15.687-2.539-15.687-3.925c0-0.744,2.328-2.394,7.844-3.307v3.307C32.181,73.413,32.764,73.998,33.485,73.998z"/>
<path fill="#003399" d="M25.738,15.658c0.204,0.489,0.686,0.811,1.211,0.811h5.231V34.77h2.612V15.158
	c0-0.722-0.584-1.305-1.307-1.305h-3.384l9.921-9.92l9.922,9.92h-4.692c-0.72,0-1.304,0.583-1.304,1.305V34.77h2.61V16.469h6.539
	c0.524,0,1.006-0.322,1.209-0.811c0.204-0.488,0.09-1.051-0.29-1.423L40.942,1.161c-0.509-0.51-1.328-0.51-1.838,0L26.03,14.235
	C25.651,14.607,25.534,15.17,25.738,15.658z"/>
<path fill="#003399" d="M14.254,60.536c0.248,0.255,0.583,0.387,0.927,0.387c0.167,0,0.342-0.03,0.503-0.102
	c0.481-0.206,0.803-0.68,0.803-1.213v-5.223h10.462v-2.62H15.181c-0.723,0-1.307,0.588-1.307,1.31v3.383l-9.922-9.921l9.922-9.917
	v4.687c0,0.723,0.584,1.31,1.307,1.31h11.768v-2.615H16.487v-6.537c0-0.529-0.322-1.007-0.803-1.207
	c-0.496-0.208-1.051-0.091-1.43,0.28L1.18,45.611c-0.51,0.515-0.51,1.339,0,1.851L14.254,60.536z"/>
<path fill="#003399" d="M78.866,45.611L65.793,32.538c-0.381-0.372-0.94-0.488-1.43-0.28c-0.483,0.2-0.804,0.678-0.804,1.207v5.228
	H53.099v2.614h11.768c0.724,0,1.306-0.583,1.306-1.305V36.62l9.924,9.917l-9.924,9.921v-4.692c0-0.722-0.582-1.306-1.306-1.306
	H53.099v2.615H63.56v6.533c0,0.533,0.32,1.007,0.804,1.213c0.159,0.071,0.334,0.102,0.503,0.102c0.342,0,0.671-0.132,0.927-0.387
	l13.073-13.074C79.379,46.95,79.379,46.126,78.866,45.611z"/>
<rect x="38.717" y="30.849" fill="#003399" width="2.613" height="2.616"/>
<rect x="23.024" y="45.228" fill="#003399" width="2.619" height="2.617"/>
<rect x="54.403" y="45.228" fill="#003399" width="2.619" height="2.617"/>
</svg>
