<?xml version="1.0" encoding="utf-8"?>
<!-- Generator: Adobe Illustrator 15.0.0, SVG Export Plug-In . SVG Version: 6.00 Build 0)  -->
<!DOCTYPE svg PUBLIC "-//W3C//DTD SVG 1.1//EN" "http://www.w3.org/Graphics/SVG/1.1/DTD/svg11.dtd">
<svg version="1.1" id="Layer_1" xmlns="http://www.w3.org/2000/svg" xmlns:xlink="http://www.w3.org/1999/xlink" x="0px" y="0px"
	 width="80px" height="80px" viewBox="0 0 80 80" enable-background="new 0 0 80 80" xml:space="preserve">
<path fill="#003399" d="M77.919,73.589H2.138c-0.952,0-1.729-0.771-1.729-1.723c0-0.953,0.778-1.723,1.729-1.723h75.781
	c0.951,0,1.73,0.77,1.73,1.723C79.649,72.817,78.87,73.589,77.919,73.589z"/>
<path fill="#003399" d="M73.616,6.411c-3.324-0.008-6.02,2.686-6.027,6.009c-0.008,1.536,0.586,3.014,1.631,4.131L57.374,36.87
	c-2.365-1.749-5.646-1.525-7.75,0.522L33.108,25.068c0.015-0.191,0.031-0.377,0.031-0.569c0.005-3.331-2.683-6.039-6.014-6.042
	c-3.331-0.007-6.041,2.687-6.041,6.016c0,1.057,0.273,2.091,0.793,3.01L8.15,46.579c-3.201-0.951-6.574,0.873-7.519,4.07
	c-0.952,3.201,0.872,6.568,4.073,7.52c3.201,0.951,6.561-0.873,7.512-4.074c0.583-1.959,0.137-4.08-1.183-5.629l13.365-18.588
	c2.508,1.268,5.559,0.634,7.346-1.533l16.179,12.078c-0.717,3.252,1.34,6.467,4.59,7.186c3.244,0.713,6.467-1.342,7.182-4.588
	c0.229-1.025,0.18-2.086-0.129-3.083l12.629-21.645c3.229,0.789,6.486-1.193,7.281-4.426c0.785-3.233-1.197-6.497-4.426-7.282
	C74.573,6.469,74.099,6.411,73.616,6.411z M6.442,54.946c-1.428,0-2.588-1.16-2.588-2.588s1.161-2.59,2.588-2.59
	c1.42,0,2.581,1.162,2.581,2.59S7.862,54.938,6.442,54.946z M27.111,27.08c-0.685,0-1.341-0.271-1.832-0.757l-0.015-0.018
	c-0.994-1.017-0.98-2.649,0.044-3.648c1.017-0.998,2.653-0.98,3.647,0.036c0.995,1.02,0.98,2.652-0.036,3.652
	C28.437,26.816,27.788,27.084,27.111,27.08z M53.813,44.304c-1.428,0-2.588-1.154-2.588-2.582s1.16-2.584,2.588-2.584
	s2.58,1.157,2.58,2.584S55.241,44.304,53.813,44.304z M73.616,15.022c-1.428,0-2.582-1.157-2.582-2.584
	c0-1.424,1.154-2.581,2.582-2.581s2.588,1.157,2.588,2.581C76.204,13.866,75.044,15.022,73.616,15.022z"/>
</svg>
