<?xml version="1.0" encoding="utf-8"?>
<!-- Generator: Adobe Illustrator 15.0.0, SVG Export Plug-In . SVG Version: 6.00 Build 0)  -->
<!DOCTYPE svg PUBLIC "-//W3C//DTD SVG 1.1//EN" "http://www.w3.org/Graphics/SVG/1.1/DTD/svg11.dtd">
<svg version="1.1" id="Layer_1" xmlns="http://www.w3.org/2000/svg" xmlns:xlink="http://www.w3.org/1999/xlink" x="0px" y="0px"
	 width="70px" height="70px" viewBox="0 0 70 70" enable-background="new 0 0 70 70" xml:space="preserve">
<path fill="#838383" d="M68.13,4.451H1.966c-0.794,0-1.438,0.644-1.438,1.438v48.905c0,0.794,0.644,1.438,1.438,1.438h24.452v5.754
	h-7.191c-0.794,0-1.439,0.644-1.439,1.438s0.645,1.439,1.439,1.439H50.87c0.794,0,1.438-0.646,1.438-1.439s-0.646-1.438-1.438-1.438
	h-7.19v-5.754h24.45c0.795,0,1.438-0.646,1.438-1.438V5.889C69.568,5.095,68.925,4.451,68.13,4.451z M40.803,61.986H29.294v-5.754
	h11.509V61.986z M66.693,53.355H3.404V7.327h63.29V53.355L66.693,53.355z M21.24,40.123c-0.635-0.477-0.764-1.378-0.288-2.016
	l8.63-11.506c0.371-0.499,1.021-0.702,1.61-0.503l12.054,4.014l10.141-11.277H50.87c-0.795,0-1.438-0.645-1.438-1.439
	s0.644-1.439,1.438-1.439h5.754h0.216h0.288c0.104,0.041,0.202,0.099,0.287,0.173c0.063,0.023,0.121,0.057,0.173,0.101l0,0
	c0.079,0.076,0.146,0.163,0.201,0.259c0,0,0.102,0.128,0.13,0.188c0.005,0.08,0.005,0.162,0,0.244
	c0.083,0.146,0.132,0.308,0.146,0.474v5.754c0,0.794-0.646,1.437-1.439,1.437s-1.439-0.643-1.439-1.437v-2L44.742,32.743
	c-0.383,0.426-0.98,0.584-1.524,0.403l-11.953-3.984l-8.012,10.672c-0.272,0.361-0.697,0.577-1.15,0.577
	C21.791,40.411,21.489,40.311,21.24,40.123z M9.158,49.042V11.643c0-0.794,0.645-1.438,1.439-1.438s1.437,0.644,1.437,1.438v1.438
	h2.878c0.794,0,1.437,0.645,1.437,1.439s-0.643,1.437-1.437,1.437h-2.878v2.878h2.878c0.794,0,1.437,0.643,1.437,1.437
	s-0.643,1.439-1.437,1.439h-2.878v2.876h2.878c0.794,0,1.437,0.645,1.437,1.439s-0.643,1.439-1.437,1.439h-2.878v2.876h2.878
	c0.794,0,1.437,0.645,1.437,1.439c0,0.794-0.643,1.437-1.437,1.437h-2.878v2.879h2.878c0.794,0,1.437,0.643,1.437,1.437
	c0,0.795-0.643,1.44-1.437,1.44h-2.878v2.875h2.878c0.794,0,1.437,0.646,1.437,1.438c0,0.795-0.643,1.438-1.437,1.438h-2.878v2.877
	H59.5c0.794,0,1.439,0.645,1.439,1.438s-0.646,1.437-1.439,1.437H10.597C9.802,50.479,9.158,49.836,9.158,49.042z"/>
</svg>
