<?xml version="1.0" encoding="utf-8"?>
<!-- Generator: Adobe Illustrator 15.0.0, SVG Export Plug-In . SVG Version: 6.00 Build 0)  -->
<!DOCTYPE svg PUBLIC "-//W3C//DTD SVG 1.1//EN" "http://www.w3.org/Graphics/SVG/1.1/DTD/svg11.dtd">
<svg version="1.1" id="Layer_1" xmlns="http://www.w3.org/2000/svg" xmlns:xlink="http://www.w3.org/1999/xlink" x="0px" y="0px"
	 width="80px" height="80px" viewBox="0 0 80 80" enable-background="new 0 0 80 80" xml:space="preserve">
<g>
	<path fill="#003399" d="M77.848,16.229H15.911c-1.079,0-1.897,0.901-1.897,1.901v36.743c0,1.078,0.905,1.896,1.897,1.896h61.937
		c1.086,0.095,1.904-0.818,1.904-1.812V18.13C79.752,17.04,78.848,16.229,77.848,16.229z M75.957,52.977h-0.094H17.902V20.114
		h58.055V52.977z"/>
	<path fill="#003399" d="M68.998,26.884h1.18c1.088,0,1.984-0.905,1.984-1.897c0-1.079-0.896-1.991-1.984-1.991h-1.18
		c-1.079,0-1.984,0.913-1.984,1.991C67.014,25.979,67.919,26.884,68.998,26.884z"/>
	<path fill="#003399" d="M23.681,49.094h1.079c1.079,0,1.992-0.904,1.992-1.982c0-1.086-0.913-1.992-1.992-1.992h-1.173
		c-1.086,0-1.984,0.906-1.984,1.992C21.603,48.188,22.594,49.094,23.681,49.094z"/>
	<path fill="#003399" d="M46.882,47.378c5.961,0,10.834-4.873,10.834-10.833s-4.873-10.841-10.834-10.841
		c-5.959,0-10.841,4.881-10.841,10.841S40.923,47.378,46.882,47.378z"/>
	<path fill="#003399" d="M71.076,59.84H11.124V24.9c0-1.086-0.905-1.905-1.897-1.905c-0.992,0-1.889,0.913-1.889,1.905v36.743
		c-0.095,1.088,0.716,1.991,1.803,1.991h61.937c1.086,0,1.904-0.903,1.904-1.903C72.98,60.65,72.068,59.84,71.076,59.84z"/>
	<path fill="#003399" d="M64.307,66.611H4.353v-34.94c0-0.992-0.905-1.897-1.992-1.897c-1.079,0-1.89,0.905-1.89,1.897v36.75
		c0,1.079,0.811,1.983,1.89,1.983h61.944c1.086,0,1.897-0.904,1.897-1.896C66.203,67.422,65.297,66.611,64.307,66.611z"/>
	<circle fill="#FFFFFF" cx="46.883" cy="36.541" r="7.608"/>
</g>
</svg>
